<svg xmlns="http://www.w3.org/2000/svg" viewBox="0 0 256 256" style="enable-background:new 0 0 256 256" xml:space="preserve"><style>.st3{fill:#f0c020}.st4{fill:#f9e5af}.st13{fill:#afafaf}</style><g id="Layer_1"><path class="st13" d="M233.67 57.801h-56.51l14.01 14 14.68 14.68a5.003 5.003 0 0 1 0 7.07l-7.37 7.38a5.003 5.003 0 0 1-7.07 0l-10.63-10.63v39.6H75.22v-39.6l-10.63 10.63a5.003 5.003 0 0 1-7.07 0l-7.37-7.38a5.003 5.003 0 0 1 0-7.07l14.68-14.68 13.99-14H22.33c-5.52 0-10 4.47-10 10v119.2c0 5.53 4.48 10 10 10h211.34c5.52 0 10-4.47 10-10v-119.2c0-5.53-4.48-10-10-10z"/><path class="st3" d="M229.67 71.801v111.2H26.33v-111.2h38.5l-14.68 14.68a5.003 5.003 0 0 0 0 7.07l7.37 7.38a5.003 5.003 0 0 0 7.07 0l10.63-10.63v39.6h105.56v-39.6l10.63 10.63a5.003 5.003 0 0 0 7.07 0l7.37-7.38a5.003 5.003 0 0 0 0-7.07l-14.68-14.68h38.5z"/><path style="fill:#878787" d="M146.99 225.23h-37.98l1.993-28.23h33.995z"/><path d="M127.98 37.521c-46.746 46.769-10.971 10.968-52.74 52.76l-.02.02v39.6h105.56v-39.6c-43.433-43.41-5.737-5.741-52.8-52.78z" style="fill:#efefef"/><path d="m205.85 86.481-14.68-14.68-14.01-14-42.11-42.1c-3.9-3.91-10.24-3.9-14.14 0l-42.09 42.1-13.99 14-14.68 14.68a5.003 5.003 0 0 0 0 7.07l7.37 7.38a5.003 5.003 0 0 0 7.07 0l10.63-10.63.02-.02c42.081-42.104 5.927-5.924 52.74-52.76 46.661 46.638 9.944 9.947 52.8 52.78l10.63 10.63a5.003 5.003 0 0 0 7.07 0l7.37-7.38a5.003 5.003 0 0 0 0-7.07z" style="fill:#fc5d3d"/><path d="M59.29 92.089a2.5 2.5 0 0 1 0-3.536l66.919-66.942a2.5 2.5 0 0 1 3.536 0l57.772 57.751a2.5 2.5 0 1 1-3.536 3.536l-56.004-55.984-65.152 65.175a2.5 2.5 0 0 1-3.535 0zm133.886 0-2.122-2.121a2.5 2.5 0 1 1 3.536-3.536l2.122 2.121a2.5 2.5 0 1 1-3.536 3.536z" style="fill:#ffcbc2"/><path class="st13" d="M162.89 225.23H93.11c-9.93 0-18 8.036-18 18h105.78c0-9.94-8.06-18-18-18z"/><path class="st3" d="m117.197 95.925-1.547 9.021c-.41 2.393 2.101 4.217 4.25 3.088l8.101-4.259 8.101 4.259c2.149 1.13 4.66-.695 4.25-3.088l-1.547-9.021 6.554-6.388c1.738-1.694.779-4.647-1.623-4.996l-9.057-1.316-4.05-8.207c-1.074-2.177-4.178-2.177-5.253 0l-4.05 8.207-9.057 1.316c-2.402.349-3.362 3.301-1.623 4.996l6.551 6.388z"/><path d="M170 123.667h-6.5a2.5 2.5 0 1 1 0-5h6.5a2.5 2.5 0 1 1 0 5zm-16.5 0H84.667a2.5 2.5 0 0 1-2.5-2.5V97.001a2.5 2.5 0 1 1 5 0v21.667H153.5a2.5 2.5 0 1 1 0 4.999z" style="fill:#fff"/><path class="st4" d="M73.023 174.501h-6.654a2.5 2.5 0 1 1 0-5h6.654a2.5 2.5 0 1 1 0 5zm-16.655 0H36.334a2.5 2.5 0 0 1-2.5-2.5V82.035a2.5 2.5 0 1 1 5 0V169.5h17.535a2.5 2.5 0 1 1-.001 5.001zM219.667 174.501h-20.035a2.5 2.5 0 1 1 0-5h17.535V82.035a2.5 2.5 0 1 1 5 0V172a2.5 2.5 0 0 1-2.5 2.501zm-30.035 0h-6.654a2.5 2.5 0 1 1 0-5h6.654a2.5 2.5 0 1 1 0 5z"/><path d="M96.301 172.551c6.517 0 11.818-5.301 11.818-11.818v-17.496a2.5 2.5 0 1 0-5 0v17.496c0 3.759-3.059 6.818-6.818 6.818s-6.817-3.059-6.817-6.818v-17.496a2.5 2.5 0 1 0-5 0v17.496c0 6.516 5.301 11.818 11.817 11.818zM151.99 172.551H170a2.5 2.5 0 1 0 0-5h-15.51v-24.314a2.5 2.5 0 1 0-5 0v26.814a2.5 2.5 0 0 0 2.5 2.5zM118.683 172.551a2.5 2.5 0 0 0 2.5-2.5v-7.732h7.496l6.609 9.191a2.5 2.5 0 0 0 4.059-2.919l-5.193-7.222c3.341-1.58 5.664-4.974 5.664-8.908v-1.866c0-5.436-4.422-9.858-9.857-9.858h-11.277a2.5 2.5 0 0 0-2.5 2.5v26.814a2.499 2.499 0 0 0 2.499 2.5zm2.5-26.814h8.777a4.863 4.863 0 0 1 4.857 4.858v1.866a4.863 4.863 0 0 1-4.857 4.858h-8.777v-11.582zM144.094 82.067l-7.756-1.127-3.469-7.029c-1.99-4.034-7.747-4.032-9.736 0l-3.469 7.029-7.756 1.127c-4.451.647-6.229 6.121-3.009 9.26l5.613 5.471-1.325 7.726c-.76 4.427 3.897 7.817 7.876 5.723l6.938-3.647 6.938 3.647c3.98 2.094 8.637-1.29 7.877-5.723l-1.325-7.725 5.613-5.471c3.22-3.141 1.439-8.615-3.01-9.261zm-.481 5.679-6.554 6.389a2.5 2.5 0 0 0-.719 2.213l1.547 9.02a.426.426 0 0 1-.623.452l-8.101-4.259a2.498 2.498 0 0 0-2.326 0l-8.102 4.259a.426.426 0 0 1-.622-.452l1.547-9.021a2.498 2.498 0 0 0-.719-2.213l-6.554-6.389a.426.426 0 0 1 .238-.731l9.057-1.316a2.5 2.5 0 0 0 1.882-1.368l4.05-8.208a.426.426 0 0 1 .77 0l4.05 8.208a2.501 2.501 0 0 0 1.882 1.368l9.057 1.316c.359.052.497.48.24.732zM154.58 35.221a2.496 2.496 0 0 0 0-3.53c-.95-.95-2.6-.95-3.54 0a2.5 2.5 0 0 0 0 3.53 2.51 2.51 0 0 0 3.54 0z"/><circle cx="55.21" cy="197.001" r="2.5"/><path d="M22.33 199.501h22.88a2.5 2.5 0 0 0 0-5H22.33c-4.13-.01-7.49-3.37-7.5-7.5v-119.2c.01-4.13 3.37-7.49 7.5-7.5h50.453l-8.997 9H26.33a2.5 2.5 0 0 0-2.5 2.5v111.2a2.5 2.5 0 0 0 2.5 2.5h203.34a2.5 2.5 0 0 0 2.5-2.5v-111.2a2.5 2.5 0 0 0-2.5-2.5h-37.467l-9.004-9h50.471c4.13.01 7.49 3.37 7.5 7.5v119.2c-.01 4.13-3.37 7.49-7.5 7.5H65.21a2.5 2.5 0 0 0 0 5h43.11l-1.64 23.23H93.11c-11.275 0-20.5 9.091-20.5 20.5 0 1.37 1.114 2.5 2.5 2.5h71.93a2.5 2.5 0 0 0 0-5H77.81c1.23-7.52 7.65-12.99 15.3-13h69.78c7.64.01 14.06 5.48 15.3 13h-11.15a2.5 2.5 0 0 0 0 5h13.85c1.392 0 2.5-1.119 2.5-2.5 0-11.3-9.2-20.5-20.5-20.5h-13.57l-1.64-23.23h85.99c6.89 0 12.5-5.61 12.5-12.5v-119.2c0-6.89-5.61-12.5-12.5-12.5h-55.473l-16.547-16.54c-.95-.95-2.59-.95-3.54 0-.97.97-.97 2.56 0 3.53l45.97 45.96c.957.936.996 2.534 0 3.53l-7.37 7.38c-.992.992-2.59.96-3.53 0l-63.43-63.41c-.95-.94-2.59-.94-3.54 0L62.82 99.16c-.967.987-2.584.967-3.53 0l-7.37-7.38a2.493 2.493 0 0 1 0-3.53l70.76-70.78c2.909-2.929 7.672-2.938 10.6-.01l10.69 10.69c.94.95 2.59.95 3.53 0 .98-.97.98-2.56 0-3.53l-10.68-10.69c-4.91-4.91-12.826-4.854-17.68 0L77.782 55.3H22.33c-6.89 0-12.5 5.61-12.5 12.5V187c0 6.89 5.61 12.501 12.5 12.501zm89.363 23.23 1.64-23.23h29.336l1.64 23.23h-32.616zM77.72 91.337l50.26-50.276 50.3 50.284v36.056H77.72V91.337zm-29.34-6.626c-2.929 2.929-2.915 7.695 0 10.61l7.37 7.38c2.925 2.904 7.671 2.918 10.61 0l6.36-6.362v33.562a2.5 2.5 0 0 0 2.5 2.5h105.561a2.5 2.5 0 0 0 2.5-2.5V96.343l6.359 6.357c2.926 2.905 7.672 2.917 10.61 0l7.37-7.38a7.529 7.529 0 0 0 0-10.61L197.205 74.3h29.965v106.2H28.83V74.3h29.957L48.38 84.711z"/><circle cx="157.04" cy="243.231" r="2.5"/></g></svg>