<svg id="_1-Email" data-name="1-Email" xmlns="http://www.w3.org/2000/svg" width="48" height="48"><defs><style>.cls-1{fill:#f6b445}.cls-2{fill:#fed049}.cls-3{fill:none;stroke:#474c54;stroke-linecap:round;stroke-linejoin:round;stroke-width:2px}</style></defs><g id="_Group_" data-name="&lt;Group&gt;"><path class="cls-1" d="M47 9v28a4.025 4.025 0 0 1-1.17 2.83L28 22l-.28-.43z"/><path class="cls-2" d="M45.83 39.83A4.025 4.025 0 0 1 43 41H5a4.025 4.025 0 0 1-2.83-1.17L20 22l.25-.39L24 24l3.72-2.43.28.43z"/><path class="cls-1" d="M20.25 21.61 20 22 2.17 39.83A4.025 4.025 0 0 1 1 37V11a3.944 3.944 0 0 1 .18-1.19L2 10z"/><path class="cls-2" d="M47 9 27.72 21.57 24 24l-3.75-2.39L2 10l-.82-.19A4 4 0 0 1 5 7h37c4 0 5 2 5 2z"/><path class="cls-3" d="M42 7H5a4 4 0 0 0-3.82 2.81A3.944 3.944 0 0 0 1 11v26a3.995 3.995 0 0 0 4 4h38a3.995 3.995 0 0 0 4-4V9L27.72 21.57 24 24l-3.75-2.39L2 10"/></g><path class="cls-3" d="M39 33 28 22M9 33l11-11"/></svg>