<svg xmlns="http://www.w3.org/2000/svg" xml:space="preserve" width="2048" height="2048" style="shape-rendering:geometricPrecision;text-rendering:geometricPrecision;image-rendering:optimizeQuality;fill-rule:evenodd;clip-rule:evenodd"><defs><clipPath id="id0"><path d="M1024-.001c565.539 0 1024 458.462 1024 1024 0 565.539-458.462 1024-1024 1024-565.539 0-1024-458.462-1024-1024 0-565.54 458.462-1024 1024-1024z"/></clipPath><style>.fil4{fill:#e64a19}.fil1{fill:#ffb300}</style></defs><g id="Layer_x0020_1"><path d="M1024-.001c565.539 0 1024 458.462 1024 1024 0 565.539-458.462 1024-1024 1024-565.539 0-1024-458.462-1024-1024 0-565.54 458.462-1024 1024-1024z" style="fill:#ffd54f"/><g style="clip-path:url(#id0)"><g id="_466491368"><path id="_3968037041" class="fil1" d="M741.425 875.887 1877.31 2011.77l11.33 20.29 11.19 19.58 11.09 18.9 11 18.25 10.94 17.63 10.93 17.03 10.92 16.47 10.96 15.92 11.03 15.41 11.11 14.93 11.23 14.47 11.38 14.04 11.56 13.64 11.77 13.26 12 12.92 12.26 12.6 12.55 12.3L934.683 1143.53l-12.556-12.31-12.263-12.59-11.999-12.92-11.765-13.26-11.558-13.64-11.381-14.04-11.234-14.47-11.113-14.93-11.022-15.41-10.96-15.93-10.927-16.46-10.922-17.033-10.948-17.629-11.001-18.251-11.082-18.903-11.194-19.58z"/><path id="_396809656" class="fil1" d="M847.002 674.692 1982.88 1810.57l2.47 2.61 2.3 2.7 2.12 2.79 1.94 2.86 1.77 2.94 1.6 3.01 1.43 3.06 1.26 3.13 1.1 3.17.92 3.21.76 3.25.6 3.28.43 3.3.27 3.32.12 3.33-.05 3.33-.21 3.33-.36 3.33-.52 3.31-.68 3.29-.82 3.26-.98 3.23-1.13 3.19-1.28 3.14-1.43 3.09-1.57 3.04-1.72 2.97-1.87 2.9-2.01 2.82-2.15 2.74-2.29 2.64-2.44 2.56L844.583 772.815l2.433-2.553 2.293-2.649 2.151-2.738 2.01-2.821 1.865-2.9 1.721-2.969 1.575-3.034 1.428-3.093 1.279-3.144 1.13-3.19.979-3.229.826-3.262.675-3.29.518-3.309.364-3.325.206-3.332.048-3.334-.111-3.329-.272-3.319-.433-3.302-.596-3.277-.761-3.249-.926-3.213-1.094-3.17-1.26-3.122-1.43-3.067-1.601-3.007-1.771-2.939-1.944-2.865-2.119-2.785-2.294-2.7z"/><path id="_396822784" class="fil1" d="m1191.69 1559.45 1135.88 1135.88-27.35-9.49-28.05-11.19-28.66-12.83-29.16-14.4-29.56-15.89-29.87-17.31-30.07-18.67-30.17-19.94-30.17-21.15-30.08-22.29-29.88-23.36-29.58-24.36-29.18-25.28L809.912 1323.29l29.182 25.28 29.579 24.36 29.877 23.35 30.076 22.29 30.174 21.16 30.17 19.94 30.07 18.66 29.86 17.32 29.57 15.89 29.16 14.39 28.66 12.83 28.05 11.2z"/><path id="_396825568" class="fil1" d="M844.583 772.815 1980.46 1908.7l-103.15 103.07L741.425 875.887z"/><path id="_396796936" class="fil1" d="m1558.21 1385.88 1135.88 1135.88 9.49 10.67 7.23 10.68 5.07 10.66 2.99 10.6 1.01 10.51-.89 10.37-2.69 10.22-4.41 10.01-6.03 9.79-7.56 9.51-9 9.21-10.36 8.87-11.61 8.5-12.79 8.09-13.87 7.65-14.85 7.17-15.75 6.65-16.56 6.11-17.28 5.52-17.91 4.91-18.44 4.25-18.88 3.56-19.24 2.84-19.51 2.08-19.68 1.29-19.76.46-19.75-.41-19.66-1.3-19.46-2.24-19.19-3.2-18.82-4.21-18.36-5.25-1135.88-1135.88 18.36 5.24 18.82 4.21 19.18 3.21 19.47 2.24 19.66 1.3 19.75.4 19.76-.46 19.68-1.28 19.51-2.08 19.24-2.84 18.88-3.56 18.44-4.26 17.91-4.9 17.27-5.52 16.56-6.11 15.76-6.65 14.85-7.17 13.87-7.65 12.78-8.09 11.62-8.5 10.36-8.87 9-9.21 7.56-9.52 6.03-9.78 4.41-10.01 2.69-10.22.89-10.38-1.01-10.5-2.99-10.6-5.07-10.66-7.23-10.68z"/><path id="_466489208" class="fil1" d="M741.425 875.887c121.736 220.256 214.708 315.297 436.29 436.026l102.999-102.967c26.65-26.642 70.85-29.817 98.123-2.525l179.37 179.457c113.604 113.63-173.484 235.2-366.515 173.57-287.645-91.852-712.357-487.164-727.475-797.602-5.726-117.382 102.914-367.031 203.342-266.602l179.444 179.449c27.292 27.293 24.27 71.426-2.42 98.122L741.426 875.888z"/></g></g><path d="M1024-.001c565.539 0 1024 458.462 1024 1024 0 565.539-458.462 1024-1024 1024-565.539 0-1024-458.462-1024-1024 0-565.54 458.462-1024 1024-1024z" style="fill:none"/><path d="M464.216 761.846c15.118 310.439 439.83 705.751 727.476 797.603 193.03 61.63 480.12-59.941 366.515-173.571l-179.371-179.456c-27.272-27.293-71.472-24.118-98.121 2.524l-103 102.967c-221.582-120.729-314.554-215.769-436.29-436.026l103.159-103.073c26.69-26.696 29.711-70.83 2.419-98.122L667.56 495.242C567.13 394.814 458.49 644.464 464.217 761.845z" style="fill:#ff6e40"/><path class="fil4" d="m464.216 761.846 277.208 114.041 103.159-103.073c26.69-26.697 29.712-70.83 2.419-98.123l-179.443-179.45c-100.43-100.428-209.07 149.222-203.343 266.603zM1191.69 1559.45c193.03 61.63 480.12-59.941 366.515-173.571l-179.371-179.456c-27.272-27.293-71.472-24.118-98.121 2.524l-103 102.967 13.977 247.536z"/></g></svg>