<svg xmlns="http://www.w3.org/2000/svg" xml:space="preserve" width="2048" height="2048" style="shape-rendering:geometricPrecision;text-rendering:geometricPrecision;image-rendering:optimizeQuality;fill-rule:evenodd;clip-rule:evenodd"><defs><clipPath id="id0"><path d="M1024-.001c565.541 0 1024 458.46 1024 1024s-458.461 1024-1024 1024c-565.541 0-1024-458.461-1024-1024 0-565.541 458.461-1024 1024-1024z"/></clipPath><style>.fil1{fill:#26a69a}.fil4{fill:#455a64;fill-rule:nonzero}</style></defs><g id="Layer_x0020_1"><path d="M1024-.001c565.541 0 1024 458.46 1024 1024s-458.461 1024-1024 1024c-565.541 0-1024-458.461-1024-1024 0-565.541 458.461-1024 1024-1024z" style="fill:#80cbc4"/><g style="clip-path:url(#id0)"><g id="_517157992"><path id="_2603225121" class="fil1" d="M1074.16 674.259 2210.04 1810.14l1.42 1.8 1.37 1.86 1.32 1.9 1.28 1.95 1.23 2 1.19 2.04 1.13 2.09 1.08 2.13 1.03 2.17.98 2.22.92 2.25.87 2.29.81 2.33.75 2.36.7 2.39.63 2.43L1090.87 708.471l-.63-2.429-.7-2.395-.75-2.362-.82-2.327-.86-2.29-.93-2.253-.97-2.213-1.03-2.173-1.08-2.131-1.14-2.088-1.18-2.045-1.23-1.998-1.28-1.95-1.32-1.903-1.37-1.853z"/><path id="_260322920" class="fil1" d="M1352.18 717.143 2488.06 1853.03l1.37 1.83 1.19 1.96 1 2.09.81 2.19.58 2.28.37 2.37.12 2.43L1357.62 732.301l-.13-2.437-.36-2.366-.58-2.283-.81-2.19-1-2.083-1.19-1.964z"/><path id="_260323784" class="fil1" d="M1357.62 732.301 2493.5 1868.18l-.12 2.44-.37 2.37-.58 2.28-.81 2.19-1 2.08-1.19 1.97-1.37 1.83-1.54 1.69-1.69 1.54-1.84 1.37-1.96 1.2-2.09 1-2.19.8-2.28.59-2.37.36-2.43.12L1333.79 756.131l2.43-.123 2.37-.362 2.28-.587 2.19-.802 2.09-1.002 1.96-1.195 1.84-1.371 1.69-1.538 1.54-1.692 1.37-1.834 1.19-1.966 1-2.083.81-2.189.58-2.284.36-2.366z"/><path id="_260323664" class="fil1" d="M1333.79 756.131 2469.67 1892.01h-23.83L1309.96 756.131z"/><path id="_260324048" class="fil1" d="M1309.96 756.131 2445.84 1892.01v28.55L1309.96 784.68z"/><path id="_260324432" class="fil1" d="M1422.35 872.551 2558.23 2008.43l3.6 4.08 3.52 4.13 3.45 4.16 3.37 4.19 3.29 4.24 3.21 4.27 3.13 4.31L1445.92 901.928l-3.13-4.308-3.22-4.272-3.29-4.236-3.37-4.198-3.44-4.159-3.52-4.122z"/><path id="_260324480" class="fil1" d="M1445.92 901.928 2581.8 2037.81l2.19 3.1 2.15 3.12 2.11 3.14 2.07 3.16 2.03 3.17 1.98 3.19 1.95 3.2 1.89 3.23 1.86 3.24 1.82 3.25 1.77 3.28 1.73 3.28 1.68 3.31 1.64 3.32 1.6 3.33 1.55 3.35 1.5 3.37 1.47 3.38 1.41 3.39 1.37 3.41 1.33 3.43 1.28 3.43 1.23 3.46 1.19 3.46 1.14 3.48 1.09 3.49 1.05 3.51 1 3.52.95 3.53.9 3.55.85 3.55.81 3.57-1135.88-1135.88-.81-3.57-.85-3.56-.91-3.541-.95-3.532-.99-3.52-1.05-3.505-1.09-3.493-1.14-3.479-1.19-3.465-1.23-3.453-1.28-3.438-1.33-3.424-1.37-3.409-1.42-3.395-1.46-3.381-1.5-3.365-1.56-3.35-1.59-3.335-1.64-3.32-1.69-3.303-1.72-3.289-1.77-3.272-1.82-3.257-1.86-3.239-1.9-3.222-1.94-3.207-1.98-3.19-2.03-3.173-2.07-3.155-2.11-3.138-2.15-3.119z"/><path id="_260324360" class="fil1" d="M1578.54 978.818 2714.42 2114.7l1.46 1.96L1580 980.778z"/><path id="_260324000" class="fil1" d="M1580 980.778 2715.88 2116.66l1.25 2.1 1.01 2.16.78 2.23.54 2.27.32 2.29.1 2.29-.12 2.29-.34 2.26-.56 2.22-.76 2.16-.98 2.08-1.17 1.99-1.38 1.88-1.57 1.76-1.77 1.61-1.96 1.45-1135.88-1135.88 1.96-1.45 1.76-1.61 1.58-1.76 1.38-1.88 1.17-1.99.97-2.08.77-2.16.55-2.222.35-2.261.12-2.288-.1-2.296-.32-2.29-.54-2.265-.78-2.227-1.02-2.168z"/><path id="_260324456" class="fil1" d="M1573.39 1013.82 2709.27 2149.7l-71.49 47.66L1501.9 1061.48z"/><path id="_260324240" class="fil1" d="m1501.9 1061.48 1135.88 1135.88-.16.11-.17.11-.16.1-.17.11-.16.1-.17.1-.17.1-.16.09L1500.58 1062.3l.16-.1.17-.1.16-.1.17-.1.17-.1.16-.11.16-.1z"/><path id="_260323880" class="fil1" d="m1500.58 1062.3 1135.88 1135.88v.4l.01.4v1.19l.01.4v.8L1500.6 1065.49v-.4l-.01-.4V1063.49l-.01-.39v-.4z"/><path id="_260324312" class="fil1" d="M1070.46 670.013 2206.35 1805.9l1.26 1.37 1.23 1.42 1.2 1.45L1074.16 674.259l-1.2-1.452-1.24-1.415z"/><path id="_260323928" class="fil1" d="M738.043 756.131 1873.92 1892.01h-23.83L714.213 756.131z"/><path id="_260324648" class="fil1" d="M714.213 756.131 1850.09 1892.01l-2.43-.12-2.37-.36-2.28-.59-2.19-.8-2.08-1-1.97-1.2-1.83-1.37-1.7-1.54L697.362 749.151l1.693 1.538 1.834 1.371 1.965 1.195 2.084 1.002 2.189.802 2.284.587 2.366.362z"/><path id="_260324960" class="fil1" d="m1309.96 1375.27 1135.88 1135.88-.12 2.44-.37 2.37-.58 2.28-.81 2.19-1 2.08-1.19 1.97-1.37 1.83-1.54 1.69-1.69 1.54-1.84 1.37-1.96 1.2-2.09 1-2.19.8-2.28.59-2.37.36-2.43.12L1286.13 1399.1l2.43-.12 2.37-.36 2.28-.59 2.19-.8 2.09-1 1.96-1.2 1.84-1.37 1.69-1.54 1.54-1.69 1.37-1.84 1.19-1.96 1-2.08.81-2.19.58-2.29.36-2.36z"/><path id="_260325008" class="fil1" d="m1286.13 1399.1 1135.88 1135.88h-262.13L1024 1399.1z"/><path id="_260324888" class="fil1" d="M738.043 1346.29 1873.92 2482.17l-5.25-2.94-5.19-2.99-5.14-3.04-5.08-3.09-5.01-3.15-4.96-3.19-4.9-3.24-4.83-3.29-4.77-3.34-4.71-3.39-4.65-3.44-4.58-3.48-4.51-3.53-4.45-3.57-4.38-3.62-4.31-3.66-4.25-3.71L657.069 1289.61l4.246 3.71 4.313 3.67 4.382 3.62 4.448 3.57 4.516 3.53 4.579 3.48 4.645 3.44 4.708 3.38 4.773 3.34 4.834 3.3 4.896 3.24 4.957 3.19 5.017 3.15 5.078 3.09 5.136 3.04 5.195 2.99z"/><path id="_260324816" class="fil1" d="M761.873 1399.1 1897.75 2534.98l-2.43-.12-2.37-.36-2.28-.59-2.19-.8-2.08-1-1.97-1.2-1.83-1.37L746.716 1393.66l1.834 1.37 1.964 1.2 2.084 1 2.19.8 2.283.59 2.365.36z"/><path id="_260325152" class="fil1" d="M547.425 1062.3 1683.31 2198.18l-.17-.09-.17-.1-.16-.1-.17-.1-.16-.11-.17-.1-.16-.11-.17-.11L546.103 1061.48l.163.11.164.1.165.11.165.1.165.1.166.1.166.1z"/><path id="_260324672" class="fil1" d="M546.103 1061.48 1681.98 2197.36l-71.49-47.66L474.613 1013.82z"/><path id="_260325296" class="fil1" d="M474.613 1013.82 1610.49 2149.7l-1.95-1.45L472.654 1012.37z"/><path id="_260325224" class="fil1" d="m1024 1399.1 1135.88 1135.88h-262.13L761.873 1399.1z"/><path id="_260324600" class="fil1" d="M1445.92 1229.04 2581.8 2364.92l-3.13 4.31-3.21 4.27-3.29 4.24-3.37 4.2-3.45 4.16-3.52 4.12-3.6 4.08-3.67 4.04-3.75 4.01-3.82 3.96-3.89 3.92-3.97 3.88-4.03 3.84-4.11 3.79-4.18 3.76-4.24 3.71-4.32 3.66-4.38 3.62-4.45 3.57-4.51 3.53-4.58 3.48-4.65 3.44-4.7 3.39-4.78 3.34-4.83 3.29-4.9 3.24-4.95 3.19-5.02 3.15-5.08 3.09-5.14 3.04-5.19 2.99-5.25 2.94-1135.88-1135.88 5.25-2.94 5.19-2.99 5.14-3.04 5.08-3.09 5.01-3.15 4.96-3.19 4.9-3.24 4.83-3.3 4.77-3.34 4.71-3.38 4.65-3.44 4.58-3.48 4.51-3.53 4.45-3.57 4.38-3.62 4.32-3.67 4.24-3.71 4.18-3.75 4.11-3.79 4.03-3.84 3.97-3.88 3.89-3.92 3.82-3.96 3.75-4.01 3.67-4.04 3.6-4.08 3.52-4.12 3.44-4.16 3.37-4.2 3.29-4.24 3.22-4.27z"/><path id="_260324744" class="fil1" d="m1309.96 1346.29 1135.88 1135.88v28.98L1309.96 1375.27z"/><path id="_260325560" class="fil1" d="m1500.6 1065.49 1135.88 1135.88-.06 5.53-.17 5.5-.29 5.49-.4 5.47-.51 5.44-.63 5.42-.73 5.39-.84 5.37-.96 5.35-1.06 5.31-1.16 5.3-1.28 5.26-1.38 5.24-1.49 5.21-1.59 5.18-1.69 5.15-1.79 5.12-1.9 5.09-2 5.06-2.09 5.03-2.2 5-2.29 4.96-2.4 4.93-2.48 4.89-2.59 4.86-2.68 4.83-2.77 4.79-2.87 4.75-2.96 4.72-3.05 4.67-3.14 4.64-3.23 4.6-1135.88-1135.88 3.23-4.6 3.14-4.64 3.05-4.68 2.96-4.71 2.87-4.75 2.77-4.79 2.68-4.83 2.58-4.86 2.49-4.89 2.39-4.93 2.3-4.97 2.19-4.99 2.1-5.03 2-5.06 1.9-5.09 1.79-5.12 1.69-5.15 1.59-5.18 1.49-5.21 1.38-5.24 1.27-5.27 1.17-5.29 1.06-5.32.96-5.34.84-5.37.73-5.4.63-5.41.51-5.45.4-5.46.28-5.49.18-5.51z"/><path id="_517157944" class="fil1" d="M1074.16 674.259c7.664 9.472 13.478 21.177 16.711 34.212h242.915c13.161 0 23.83 10.67 23.83 23.83 0 13.16-10.669 23.83-23.83 23.83h-23.83v28.55c56.324 31.063 102.967 71.098 135.965 117.247 23.592 32.996 40.253 69.063 48.585 107.202l52.445-34.963c10.95-7.299 25.746-4.34 33.045 6.61 7.299 10.95 4.34 25.745-6.61 33.046l-71.49 47.657c-.434.29-.875.564-1.32.821.013 1.06.019 2.121.019 3.184 0 59.091-19.735 114.692-54.675 163.557-32.997 46.15-79.64 86.184-135.964 117.248v28.981c0 13.161-10.668 23.831-23.83 23.831H761.874c-13.16 0-23.83-10.67-23.83-23.83v-28.982c-56.322-31.064-102.965-71.097-135.964-117.248-34.94-48.863-54.675-104.466-54.675-163.557 0-1.063.006-2.123.02-3.184a24.218 24.218 0 0 1-1.321-.82l-71.49-47.658c-10.95-7.3-13.909-22.096-6.61-33.045 7.3-10.951 22.095-13.91 33.045-6.61l52.446 34.961c8.331-38.138 24.992-74.205 48.585-107.2 32.998-46.152 79.64-86.184 135.964-117.248v-28.55h-23.83c-13.161 0-23.83-10.668-23.83-23.83 0-13.16 10.669-23.83 23.83-23.83h242.915c3.234-13.034 9.047-24.739 16.711-34.211 12.676-15.667 30.4-25.36 50.16-25.36 19.761 0 37.485 9.693 50.16 25.36z"/></g></g><path d="M1024-.001c565.541 0 1024 458.46 1024 1024s-458.461 1024-1024 1024c-565.541 0-1024-458.461-1024-1024 0-565.541 458.461-1024 1024-1024z" style="fill:none"/><path d="M1024 744.218h-57.84c-6.58 0-11.915-5.335-11.915-11.915 0-22.548 7.488-43.08 19.595-58.043 12.675-15.667 30.399-25.362 50.16-25.362 19.761 0 37.485 9.695 50.16 25.362 12.107 14.962 19.595 35.495 19.595 58.043 0 6.58-5.335 11.915-11.915 11.915H1024z" style="fill:#263238;fill-rule:nonzero"/><path class="fil4" d="M501.049 974.167c-10.95-7.3-25.746-4.34-33.045 6.61-7.3 10.95-4.34 25.746 6.61 33.046l71.49 47.658c10.95 7.3 25.745 4.34 33.044-6.61 7.3-10.95 4.34-25.746-6.61-33.045l-71.489-47.659zM1573.39 1013.82c10.95-7.3 13.909-22.095 6.61-33.046-7.3-10.95-22.095-13.909-33.045-6.61l-71.49 47.66c-10.95 7.298-13.909 22.094-6.61 33.044 7.3 10.951 22.095 13.91 33.045 6.61l71.49-47.658z"/><path d="M1309.96 784.68c56.323 31.065 102.966 71.099 135.965 117.248 34.938 48.865 54.672 104.466 54.672 163.557 0 59.092-19.734 114.692-54.672 163.557-32.999 46.15-79.642 86.184-135.965 117.248v28.98c0 13.162-10.669 23.832-23.83 23.832H761.877c-13.16 0-23.831-10.67-23.831-23.831v-28.981c-56.323-31.063-102.966-71.098-135.965-117.248-34.938-48.863-54.672-104.465-54.672-163.557 0-59.09 19.734-114.692 54.672-163.558 32.999-46.15 79.642-86.182 135.965-117.247v-28.982c0-13.16 10.67-23.831 23.831-23.831h524.253c13.161 0 23.83 10.67 23.83 23.831v28.982z" style="fill:#424242;fill-rule:nonzero"/><path d="M1024 1399.1V731.865H761.874c-13.161 0-23.831 10.67-23.831 23.831v28.982c-56.323 31.065-102.966 71.098-135.965 117.247-23.591 32.995-40.252 69.064-48.584 107.203a263.568 263.568 0 0 0-6.088 56.355c0 59.092 19.734 114.693 54.672 163.557 32.999 46.15 79.642 86.185 135.965 117.248v28.98c0 13.162 10.67 23.832 23.831 23.832H1024z" style="fill:#ca2b03"/><path d="M1445.92 1229.04c34.938-48.865 54.672-104.465 54.672-163.557a263.568 263.568 0 0 0-6.089-56.355c-8.331-38.14-24.992-74.207-48.583-107.202-32.999-46.15-79.642-86.183-135.965-117.248v-28.982c0-13.161-10.669-23.831-23.83-23.831h-262.127V1399.1h262.127c13.161 0 23.83-10.67 23.83-23.831v-28.981c56.323-31.064 102.966-71.099 135.965-117.248z" style="fill:#dd2c00"/><path d="M714.213 708.471c-13.161 0-23.83 10.67-23.83 23.831 0 13.16 10.669 23.83 23.83 23.83h619.574c13.161 0 23.83-10.67 23.83-23.83 0-13.16-10.669-23.831-23.83-23.831H714.213z" style="fill:#560502;fill-rule:nonzero"/><path d="M761.873 1399.1H1024v-52.812H738.043v28.98c0 13.162 10.67 23.832 23.83 23.832z" style="fill:#b62703"/><path d="M1024 1399.1h262.127c13.161 0 23.83-10.67 23.83-23.831v-28.98H1024v52.811z" style="fill:#c72800"/></g></svg>