<svg xmlns="http://www.w3.org/2000/svg" xml:space="preserve" width="2048" height="2048" style="shape-rendering:geometricPrecision;text-rendering:geometricPrecision;image-rendering:optimizeQuality;fill-rule:evenodd;clip-rule:evenodd"><defs><clipPath id="id0"><path d="M1024-.001c565.541 0 1024 458.46 1024 1024s-458.461 1024-1024 1024c-565.541 0-1024-458.461-1024-1024 0-565.541 458.461-1024 1024-1024z"/></clipPath><style>.fil1{fill:#303f9f}.fil10{fill:#7cb342}.fil9{fill:#8bc34a}.fil5{fill:#c57040}.fil14{fill:#ff8f00}</style></defs><g id="Layer_x0020_1"><path d="M1024-.001c565.541 0 1024 458.46 1024 1024s-458.461 1024-1024 1024c-565.541 0-1024-458.461-1024-1024 0-565.541 458.461-1024 1024-1024z" style="fill:#5c6bc0"/><g style="clip-path:url(#id0)"><g id="_517134520"><path id="_3738952001" class="fil1" d="M1372.18 488.783 2508.06 1624.67v88.51L1372.18 577.3z"/><path id="_373895440" class="fil1" d="m1416.25 1561.63 1135.88 1135.88-.12 2.29-.34 2.22-.55 2.14-.75 2.06-.94 1.95-1.12 1.85-1.29 1.72-1.45 1.59-1.58 1.44-1.73 1.29-1.84 1.12-1.96.94-2.05.76-2.15.55-2.22.34-2.28.11L1393.87 1584l2.29-.12 2.22-.33 2.15-.56 2.05-.75 1.96-.94 1.84-1.12 1.72-1.29 1.59-1.44 1.45-1.59 1.28-1.72 1.13-1.85.94-1.95.75-2.06.55-2.14.34-2.22z"/><path id="_373896640" class="fil1" d="m1393.87 1584 1135.89 1135.88H1888.5L752.617 1584z"/><path id="_373896184" class="fil1" d="M752.617 1584 1888.5 2719.88h-12.41L740.206 1584z"/><path id="_373896472" class="fil1" d="M737.356 1583.95 1873.24 2719.83l-.78-.01-.79-.05-.78-.07-.79-.1-.78-.12-.79-.16-.78-.18-.79-.22L731.079 1583.04l.786.21.785.19.787.16.786.12.786.1.784.07.783.04z"/><path id="_373896040" class="fil1" d="M740.206 1584 1876.09 2719.88h-2.85L737.356 1584z"/><path id="_373896064" class="fil1" d="M731.079 1583.04 1866.96 2718.92l-2.77-.84-2.73-.86-2.69-.89-2.66-.92-2.62-.95-2.58-.97-2.54-1-2.51-1.04-2.47-1.05-2.44-1.09-2.39-1.12-2.36-1.14-2.32-1.17-2.28-1.2-2.25-1.23-2.21-1.26-2.17-1.29-2.13-1.31-2.09-1.35-2.06-1.37-2.01-1.4-1.98-1.43-1.94-1.47-1.91-1.49-1.86-1.52L673.11 1553.68l1.863 1.52 1.902 1.49 1.94 1.46 1.979 1.43 2.017 1.41 2.056 1.37 2.093 1.35 2.132 1.31 2.17 1.29 2.207 1.25 2.246 1.23 2.283 1.21 2.321 1.17 2.357 1.14 2.397 1.12 2.433 1.08 2.471 1.06 2.507 1.03 2.545 1.01 2.583.97 2.62.95 2.656.92 2.693.89 2.731.86z"/><path id="_373896424" class="fil1" d="M1366.51 473.553 2502.4 1609.44l.85 1.04.79 1.1.73 1.14.66 1.19.6 1.22.52 1.27.45 1.3.38 1.34.29 1.36.22 1.4.13 1.42.04 1.45L1372.18 488.783l-.04-1.444-.14-1.421-.21-1.396-.29-1.367-.38-1.336-.45-1.302-.52-1.267-.6-1.227-.66-1.186-.73-1.142-.79-1.096z"/><path id="_373896088" class="fil1" d="M1416.25 599.665 2552.13 1735.55v961.96L1416.25 1561.63z"/><path id="_373896112" class="fil1" d="M1405.92 577.293 2541.8 1713.17l3.98 6.77L1409.9 584.057z"/><path id="_373896448" class="fil1" d="M1410.62 584.829 2546.5 1720.71l.68.81.64.84.61.86.56.9.52.93.48.95.44.98.38 1 .34 1.02.3 1.05.24 1.06.19 1.09.13 1.1.09 1.12.03 1.13L1416.25 599.665l-.03-1.131-.09-1.118-.13-1.101-.19-1.083-.25-1.065-.29-1.045-.34-1.025-.39-1.002-.43-.977-.48-.953-.52-.925-.56-.899-.61-.868-.64-.837z"/><path id="_517134712" class="fil1" d="M1416.25 599.665v961.964c0 12.355-10.017 22.371-22.371 22.371H737.36v-.052a22.339 22.339 0 0 1-6.277-.91c-29.711-8.776-53.159-22.228-69.93-40.832-17.05-18.916-26.793-42.482-28.782-71.13a22.6 22.6 0 0 1-.192-2.942V555.106c-2.2-17.604 4.382-33.573 16.598-46.244 21.993-22.81 70.948-41.47 158.008-43.21 179.73-3.586 362.302-.214 542.347-.214 5.034 0 9.68 1.663 13.418 4.47 5.837 4.236 9.633 11.113 9.633 18.876V577.3l33.739-.007 3.98 6.764a22.295 22.295 0 0 1 6.347 15.609z"/></g></g><path d="M1024-.001c565.541 0 1024 458.46 1024 1024s-458.461 1024-1024 1024c-565.541 0-1024-458.461-1024-1024 0-565.541 458.461-1024 1024-1024z" style="fill:none"/><path d="m740.206 577.426 665.712-.133 3.98 6.764a22.295 22.295 0 0 1 6.348 15.608v961.964c0 12.356-10.017 22.371-22.372 22.371H740.205V577.43z" style="fill:#ffaf68"/><path d="m734.329 577.432 5.875-.001v1006.34c-2.97.382-6.066.17-9.124-.728-29.712-8.777-53.16-22.228-69.93-40.833-17.051-18.915-26.793-42.482-28.782-71.13a22.6 22.6 0 0 1-.193-2.942V555.11c-2.2-17.604 4.382-33.572 16.598-46.243 21.994-22.81 70.948-41.47 158.008-43.211 179.731-3.586 362.302-.214 542.347-.214 10.266 0 18.918 6.918 21.55 16.344 4.91 11.263-4.12 24.07-18.597 27.276-9.994.62-18.455 1.124-28.33 1.127l-524.176.217c-12.57.695-55.729-.467-87.032 7.52-68.616 17.507-29.73 59.697 21.786 59.51z" style="fill:#e08045"/><path class="fil5" d="M737.356 564.471v1019.53h15.261V565.081a9.391 9.391 0 0 1-1.752.263 57.321 57.321 0 0 1-13.51-.869z"/><path d="m1339.95 510.45-21.508.01-525.749.21c-75.732.03-112.109 12.8-116.665 31.392-3.537 14.437 10.29 35.788 51.418 35.639a8.747 8.747 0 0 1 1.478-.138h613.568l-2.542-67.113z" style="fill:#fff8e1"/><path d="M1372.18 488.783c0-12.87-10.435-23.305-23.305-23.305-12.871 0-23.305 10.435-23.305 23.305V577.558h46.61v-88.775z" style="fill:#e08045;fill-rule:nonzero"/><path class="fil5" d="M937.43 809.699h264.005v28.12H937.43zM838.817 887.026h461.23v28.12h-461.23z"/><path d="m1230.83 1296.51-288.252-1.195c-11.043-.046-21.065-5.106-28.317-13.224-7.245-8.11-11.721-19.296-11.68-31.597v-.002c.025-7.29 2.73-13.906 7.071-18.693 4.335-4.78 10.32-7.735 16.91-7.708h.001l320.841 1.33c6.564.028 12.52 3.034 16.829 7.857 4.303 4.817 6.96 11.469 6.936 18.79-.042 12.271-4.596 23.407-11.903 31.464-7.298 8.05-17.364 13.023-28.436 12.978zm-304.269-72.42h.001m-23.98 26.404" style="fill:#c26c34;fill-rule:nonzero"/><path class="fil9" d="M1262.76 1225.39c2.229 7.897-1.645 8.772 8.739 13.035.27.191 19.996 5.463 7.323 10.87-.024.009-15.965-4.081-18.073-4.678-10.463-2.96 1.55-4.784-16.333-5.177-7.259-.159-6.035-6.682-14.252-3.76-8.215 2.92-5.345 1.544-14.01 5.35-1.251.55-4.673.086-11.892 3.146-6.598 2.796-16.393.39-17.56-3.958-2.653 0-22.715 16.734-40.423-1.08l-.716-.72c-12.4-12.473-16.337.58-39.992.58-18.58 0-3.691 8.36-25.119-1.554-5.732-2.652-14.693 14.319-23.269 7.916-6.097-4.552-15.33-7.527-22.514-4.4-6.115 2.663-13.06-4.086-17.425-8.206-13.306-.255-23.503 8.835-35.605.117-4.611-3.322-15.201 12.874-30.545 8.229-5.188-1.571-7.957 10.157-20.948 9.68-12.914-.475-7.114-3.883-21.177-4.063-11.851-.151-10.582-14.41-5.871-20.38.167-.212 1.588-3.128 1.66-3.518 9.787-4.855 81.94-2.162 100.622-4.433 35.516-4.32 61.816 4.77 98.18 4.77 33.7 0 78.602 1.168 110.813-.51 4.965-.26 41.309-4.867 44.297-1.626.334.363.28.386.39.848 1.236.22 1.61 1.029 2.283 2.1.59.944 1.222.731 1.417 1.422z"/><path class="fil10" d="M903.772 1226.61c-2.153 7.897 1.589 8.773-8.441 13.035-.259.191-19.314 5.463-7.072 10.87.022.009 15.42-4.082 17.456-4.678 10.105-2.96-1.498-4.784 15.773-5.177 7.013-.159 5.83-6.682 13.767-3.76 7.934 2.92 5.162 1.544 13.532 5.35 1.207.55 4.513.086 11.485 3.145 6.374 2.796 15.834.39 16.96-3.957 2.564 0 21.941 16.734 39.045-1.08l.69-.72c11.977-12.473 15.78.58 38.627.58 17.945 0 3.566 8.36 24.261-1.555 5.537-2.651 14.191 14.32 22.476 7.916 5.887-4.55 14.805-7.526 21.744-4.398 5.906 2.662 12.614-4.087 16.83-8.207 12.852-.255 22.701 8.836 34.39.117 4.454-3.322 14.683 12.874 29.502 8.229 5.012-1.571 7.687 10.157 20.232 9.68 12.474-.475 6.872-3.883 20.455-4.063 11.447-.151 10.221-14.41 5.671-20.38-.161-.213-1.534-3.128-1.604-3.518-9.452-4.855-79.142-2.162-97.187-4.433-34.302-4.32-59.704 4.77-94.827 4.77-32.55 0-75.919 1.166-107.029-.51-4.797-.26-39.9-4.868-42.785-1.626-.323.363-.272.386-.378.848-1.194.219-1.555 1.028-2.204 2.101-.57.943-1.181.73-1.37 1.421z"/><path d="M919.906 1170.12h333.944c16.968 0 30.852 13.884 30.852 30.853s-13.884 30.853-30.852 30.853H919.906c-16.97 0-30.853-13.884-30.853-30.853 0-16.97 13.883-30.853 30.853-30.853z" style="fill:#754529"/><path d="M901.685 1211.78c-3.53 2.582-3.947 7.124-.93 10.146 3.018 3.02 8.328 3.376 11.86.795l.002-.003.013.013a7.86 7.86 0 0 0 .532-.421c8.716-6.296 17.393-12.455 24.15-12.232 3.26.108 7.451 1.787 11.638 3.465 6.057 2.429 12.11 4.855 19.24 4.786 6.889-.065 12.764-2.472 18.638-4.879 4.203-1.722 8.406-3.444 11.601-3.453 3.195-.011 7.45 1.702 11.712 3.416 5.895 2.372 11.8 4.749 18.656 4.813 6.887.067 12.843-2.214 18.8-4.494 4.27-1.635 8.542-3.27 11.768-3.22 3.2.051 7.43 1.788 11.683 3.533 6.021 2.47 12.077 4.956 19.174 5.022 7.172.067 13.452-2.36 19.68-4.769 4.319-1.669 8.604-3.326 11.843-3.377 3.297-.053 7.45 1.602 11.586 3.25 5.545 2.21 11.07 4.411 17.634 4.559 6.665.15 12.508-1.86 18.396-3.883 4.349-1.495 8.733-3.002 12.158-2.905 3.42.097 7.671 1.774 11.898 3.442 5.997 2.366 11.958 4.718 18.906 4.697 7.225-.024 13.365-2.608 19.34-5.125 3.805-1.602 7.517-3.164 10.131-3.286 5.812-.27 15.198 8.24 19.194 11.678 10.635 5.683 16.914-6.629 11.89-10.152-9.582-8.247-19.16-16.495-31.98-15.9-5.997.279-11.27 2.498-16.673 4.773-4.242 1.787-8.6 3.621-11.94 3.632-3.238.01-7.53-1.683-11.847-3.386-5.785-2.283-11.606-4.58-18.31-4.77-6.968-.196-13.041 1.891-19.064 3.962-4.245 1.46-8.458 2.907-11.636 2.836-3.109-.07-7.056-1.643-11.015-3.22-5.92-2.36-11.865-4.728-18.976-4.613-6.636.103-12.511 2.375-18.433 4.664-4.517 1.747-9.07 3.506-12.587 3.473-3.442-.032-7.786-1.814-12.104-3.585-5.884-2.416-11.735-4.817-18.632-4.927-7.01-.11-12.998 2.182-18.984 4.473-4.219 1.616-8.438 3.23-11.707 3.2-3.283-.032-7.499-1.728-11.706-3.422-5.96-2.398-11.909-4.79-18.893-4.77-6.961.023-12.895 2.455-18.83 4.886-4.183 1.713-8.367 3.427-11.557 3.458-3.252.03-7.61-1.716-11.972-3.464-5.702-2.287-11.412-4.575-18.05-4.794-13.183-.434-24.435 7.526-35.653 15.63a8.394 8.394 0 0 0-.63.415l5.465 5.492-5.464-5.47-.015.011zm10.92 10.931-3.046-3.05 3.028 3.064.018-.014z" style="fill:#ff8f00;fill-rule:nonzero"/><path class="fil9" d="M904.465 1168.86c-2.229 7.897 1.644 8.772-8.739 13.035-.27.191-19.997 5.463-7.323 10.87.024.009 15.965-4.082 18.072-4.678 10.464-2.96-1.55-4.784 16.333-5.178 7.259-.158 6.035-6.681 14.253-3.76 8.214 2.922 5.343 1.545 14.01 5.351 1.25.55 4.672.086 11.892 3.145 6.599 2.797 16.392.391 17.56-3.957 2.653 0 22.715 16.734 40.424-1.08l.714-.72c12.4-12.473 16.338.58 39.992.58 18.58 0 3.691 8.36 25.119-1.555 5.733-2.651 14.693 14.32 23.27 7.917 6.096-4.552 15.328-7.527 22.513-4.4 6.115 2.663 13.06-4.086 17.426-8.206 13.305-.255 23.502 8.835 35.605.117 4.611-3.322 15.201 12.874 30.545 8.229 5.187-1.571 7.957 10.157 20.947 9.68 12.914-.475 7.114-3.883 21.177-4.063 11.852-.151 10.583-14.41 5.871-20.38-.166-.213-1.588-3.128-1.66-3.518-9.786-4.855-81.94-2.162-100.621-4.433-35.516-4.32-61.817 4.77-98.18 4.77-33.7 0-78.603 1.168-110.813-.51-4.966-.26-41.309-4.867-44.297-1.626-.334.363-.28.386-.392.848-1.235.22-1.609 1.028-2.28 2.1-.592.944-1.223.731-1.418 1.422z"/><path class="fil10" d="M1263.45 1170.07c2.153 7.897-1.587 8.772 8.441 13.034.26.192 19.314 5.464 7.073 10.87-.023.01-15.42-4.081-17.456-4.677-10.105-2.96 1.497-4.784-15.775-5.177-7.01-.159-5.83-6.682-13.765-3.761-7.935 2.92-5.163 1.545-13.532 5.351-1.208.55-4.513.086-11.485 3.145-6.375 2.796-15.834.39-16.96-3.957-2.564 0-21.942 16.734-39.046-1.08l-.69-.72c-11.977-12.473-15.78.58-38.627.58-17.945 0-3.565 8.358-24.261-1.555-5.536-2.651-14.191 14.32-22.474 7.916-5.888-4.55-14.807-7.526-21.746-4.398-5.905 2.662-12.613-4.087-16.83-8.207-12.852-.255-22.7 8.835-34.39.117-4.453-3.322-14.683 12.874-29.502 8.229-5.01-1.571-7.686 10.157-20.233 9.68-12.473-.476-6.87-3.883-20.454-4.063-11.447-.151-10.22-14.41-5.67-20.38.16-.213 1.534-3.128 1.604-3.518 9.45-4.856 79.14-2.162 97.186-4.433 34.302-4.32 59.706 4.77 94.828 4.77 32.55 0 75.918 1.166 107.029-.51 4.796-.26 39.899-4.868 42.785-1.626.323.363.27.386.378.847 1.193.22 1.555 1.029 2.203 2.101.572.943 1.181.731 1.369 1.422z"/><path d="m1230.83 1104.87-288.252 1.195c-11.043.046-21.065 5.107-28.317 13.224-7.245 8.11-11.721 19.296-11.68 31.597v.002c.025 7.29 2.73 13.908 7.071 18.695 4.335 4.78 10.32 7.734 16.91 7.706h.001l320.841-1.33c6.564-.027 12.52-3.034 16.829-7.857 4.303-4.817 6.96-11.468 6.936-18.79-.042-12.271-4.596-23.408-11.903-31.463-7.298-8.05-17.364-13.024-28.436-12.979zm-304.269 72.42h.001m-23.98-26.404" style="fill:#c37537;fill-rule:nonzero"/><path class="fil14" d="M927.663 1120.01c1.75 0 3.169 3.006 3.169 6.712 0 3.708-1.419 6.714-3.169 6.714s-3.17-3.006-3.17-6.714c0-3.706 1.42-6.712 3.17-6.712zM947.183 1116.56c1.672.515 2.144 3.806 1.051 7.349-1.091 3.542-3.334 5.996-5.007 5.481-1.672-.516-2.143-3.806-1.05-7.35 1.09-3.542 3.332-5.996 5.006-5.48zM964.664 1128.6c1.446.986.927 4.269-1.161 7.333-2.087 3.063-4.952 4.749-6.4 3.763-1.445-.986-.926-4.27 1.162-7.332 2.087-3.065 4.952-4.749 6.399-3.764zM984.792 1116.9c1.091 1.369-.372 4.354-3.27 6.666-2.895 2.313-6.13 3.08-7.223 1.712-1.092-1.368.37-4.353 3.268-6.667 2.897-2.312 6.132-3.079 7.225-1.711zM1005.95 1129.43c.641 1.629-1.636 4.05-5.086 5.407-3.45 1.357-6.766 1.136-7.408-.492-.641-1.63 1.637-4.05 5.087-5.408 3.45-1.357 6.767-1.136 7.407.493zM1022.07 1122.41c.132 1.746-2.758 3.387-6.455 3.669-3.697.28-6.8-.908-6.933-2.653-.132-1.746 2.757-3.389 6.454-3.669 3.697-.28 6.8.907 6.934 2.653zM1042.82 1134.09c-.389 1.707-3.634 2.426-7.248 1.605-3.616-.82-6.233-2.871-5.845-4.578.388-1.708 3.632-2.426 7.248-1.605 3.615.82 6.232 2.871 5.845 4.578zM1050.31 1123.26c-.874 1.518-4.187 1.248-7.4-.601-3.212-1.85-5.11-4.58-4.236-6.096.873-1.518 4.186-1.248 7.4.601 3.212 1.85 5.109 4.58 4.236 6.096zM1071.46 1132.64c-1.282 1.193-4.368-.04-6.894-2.754-2.525-2.715-3.534-5.881-2.252-7.074 1.281-1.193 4.367.04 6.894 2.754 2.525 2.715 3.533 5.882 2.252 7.074zM1082.88 1127.04c-1.577.762-4.163-1.325-5.777-4.663-1.614-3.338-1.645-6.661-.07-7.423 1.577-.763 4.163 1.325 5.777 4.663 1.615 3.338 1.646 6.661.07 7.423zM1107.09 1138.81c-1.73.265-3.587-2.493-4.146-6.157-.56-3.665.39-6.85 2.122-7.115 1.73-.263 3.585 2.493 4.145 6.158.56 3.665-.39 6.85-2.121 7.114zM1115.55 1127.24c-1.733-.257-2.694-3.44-2.15-7.107.546-3.666 2.39-6.43 4.124-6.173 1.731.257 2.693 3.439 2.148 7.106-.546 3.667-2.392 6.431-4.122 6.174zM1127.45 1140.06c-1.578-.756-1.56-4.08.04-7.423 1.602-3.344 4.18-5.442 5.76-4.686 1.577.756 1.56 4.08-.04 7.424-1.603 3.343-4.18 5.44-5.76 4.685zM1141.85 1126.24c-1.286-1.187-.29-4.358 2.225-7.082s5.596-3.968 6.882-2.781c1.287 1.188.291 4.358-2.225 7.083-2.514 2.723-5.596 3.968-6.882 2.78zM1148.44 1135.86c-.879-1.514 1.007-4.25 4.213-6.112 3.206-1.863 6.517-2.145 7.397-.632.879 1.514-1.007 4.25-4.213 6.113-3.205 1.862-6.517 2.144-7.397.631zM1155.55 1122.05c-.394-1.706 2.215-3.765 5.826-4.6 3.612-.834 6.86-.13 7.255 1.576.394 1.706-2.215 3.766-5.827 4.6-3.611.836-6.86.13-7.254-1.576zM1169.58 1130.11c.125-1.746 3.224-2.946 6.922-2.68 3.698.267 6.595 1.898 6.47 3.644-.127 1.747-3.227 2.945-6.924 2.68-3.698-.266-6.594-1.897-6.468-3.644zM1182.34 1119.57c.634-1.631 3.95-1.865 7.404-.52 3.456 1.343 5.743 3.755 5.109 5.386-.635 1.631-3.95 1.865-7.406.522-3.455-1.344-5.742-3.756-5.107-5.388zM1204.61 1127.51c1.087-1.372 4.324-.619 7.23 1.683 2.906 2.302 4.38 5.28 3.295 6.653-1.088 1.371-4.325.618-7.23-1.683-2.908-2.302-4.382-5.28-3.295-6.653zM1211.31 1114.2c1.442-.99 4.315.683 6.413 3.738 2.1 3.057 2.632 6.337 1.189 7.329-1.444.99-4.315-.683-6.415-3.74-2.099-3.054-2.63-6.336-1.187-7.327zM1229.16 1121.14c1.67-.523 3.921 1.923 5.027 5.461 1.106 3.539.648 6.83-1.023 7.353-1.671.522-3.921-1.923-5.028-5.462-1.106-3.538-.647-6.83 1.024-7.352zM1246.07 1112.99c1.75-.006 3.18 2.994 3.195 6.702.015 3.706-1.393 6.718-3.143 6.724-1.75.007-3.182-2.993-3.196-6.7-.014-3.707 1.394-6.719 3.144-6.726z"/></g></svg>