<svg xmlns="http://www.w3.org/2000/svg" viewBox="0 0 512 512" style="enable-background:new 0 0 512 512" xml:space="preserve"><path style="fill:#29a4fc" d="M512 255.904c0 70.692-28.654 134.692-74.981 181.019S326.692 511.904 256 511.904s-134.692-28.654-181.019-74.98S0 326.597 0 255.904 28.654 121.212 74.981 74.885 185.308-.096 256-.096s134.692 28.654 181.019 74.981S512 185.212 512 255.904z"/><path style="fill:#fff" d="M116.925 143.878c0 38.141 15.46 72.671 40.454 97.665s59.525 40.454 97.665 40.454 72.671-15.46 97.665-40.454c24.995-24.995 40.454-59.525 40.454-97.665s-15.46-72.671-40.454-97.665c-24.995-24.995-59.525-40.454-97.665-40.454s-72.671 15.46-97.665 40.454-40.454 59.524-40.454 97.665z"/><path style="fill:#fb4755" d="M255.04 40.624c-28.51 0-54.323 11.557-73.008 30.242s-30.242 44.497-30.242 73.007c0 10.5 1.568 20.635 4.483 30.184s7.178 18.511 12.568 26.666c.605.92 1.225 1.83 1.86 2.729s1.285 1.786 1.95 2.661a103.451 103.451 0 0 0 7.2 8.531 104.233 104.233 0 0 0 18.01 15.22c8.095 5.395 16.995 9.677 26.481 12.627s19.559 4.567 29.999 4.633c.115.005.232.008.35.009l.35.001c3.43 0 6.822-.167 10.167-.495s6.643-.815 9.883-1.455c2.5-.49 4.965-1.07 7.392-1.739s4.817-1.426 7.167-2.271c1.985-.695 3.943-1.455 5.869-2.275s3.821-1.7 5.681-2.635a102.218 102.218 0 0 0 18.82-12.139c3.88-3.14 7.525-6.557 10.906-10.221s6.499-7.574 9.324-11.699c.055-.07.105-.14.154-.21s.096-.14.146-.21c.13-.195.263-.392.394-.591s.261-.399.386-.599c.38-.57.753-1.145 1.117-1.724s.722-1.161 1.072-1.746a94.45 94.45 0 0 0 2.52-4.42 101.154 101.154 0 0 0 6.95-16.09l.005-.005.005-.005c1.72-5.145 3.045-10.468 3.94-15.934s1.36-11.076 1.36-16.796c0-28.51-11.557-54.323-30.244-73.007s-44.5-30.244-73.015-30.244zm0 29.42c6.7 0 13.19.892 19.36 2.565s12.02 4.125 17.44 7.245l-50.415 50.41-50.415 50.41c-3.115-5.42-5.565-11.27-7.236-17.44s-2.564-12.66-2.564-19.36c0-20.39 8.265-38.847 21.626-52.207s31.819-21.623 52.204-21.623zm55.38 122.66a72.918 72.918 0 0 1-11.851 10.809 73.506 73.506 0 0 1-31.16 13.17c-2.01.34-4.047.597-6.11.77s-4.15.26-6.26.26c-6.695 0-13.185-.893-19.355-2.565s-12.02-4.125-17.435-7.245l3.46-3.46 3.46-3.46 46.95-46.95 46.95-46.95a73.387 73.387 0 0 1 7.245 17.431 73.908 73.908 0 0 1 2.565 19.359c0 5.875-.685 11.592-1.982 17.074s-3.207 10.726-5.658 15.656a73.583 73.583 0 0 1-10.819 16.101z"/><g><path style="fill:#1f3d5c" d="M493.13 352.544c-5.25 12.865-11.515 25.207-18.696 36.926s-15.279 22.814-24.194 33.184l-.34 4.215-.34 4.215c-.245 3.02-1.628 5.695-3.708 7.615s-4.858 3.085-7.893 3.085h-5.94c-22.94 21.73-49.9 39.26-79.647 51.358S290.09 511.904 256 511.904s-66.625-6.665-96.373-18.763-56.708-29.628-79.647-51.358h-5.1c-8.995 0-17.137-3.647-23.031-9.544s-9.539-14.041-9.539-23.036v-12.28a255.36 255.36 0 0 1-23.44-44.38h474.26z"/><path style="fill:#e09461" d="M301.189 283.297v13.09a22.142 22.142 0 0 1-6.506 15.706 22.153 22.153 0 0 1-15.713 6.505H64.525a22.153 22.153 0 0 1-15.713-6.505 22.139 22.139 0 0 1-6.506-15.706v-13.09c0-22.802 9.243-43.447 24.187-58.39 14.944-14.944 35.588-24.187 58.39-24.187h93.73c22.802 0 43.447 9.243 58.39 24.187 14.943 14.943 24.186 35.587 24.186 58.39zM301.19 395.064v14.14c0 8.995-3.645 17.14-9.54 23.036s-14.04 9.544-23.04 9.544H74.88c-8.995 0-17.137-3.647-23.031-9.544s-9.539-14.041-9.539-23.036v-14.14c0-3.91 1.583-7.448 4.141-10.007s6.094-4.142 9.999-4.142h230.6c3.9 0 7.435 1.582 9.995 4.142s4.145 6.097 4.145 10.007z"/><path style="fill:#faa268" d="M301.189 283.297v13.09a22.142 22.142 0 0 1-6.506 15.706 22.153 22.153 0 0 1-15.713 6.505H141.676a22.153 22.153 0 0 1-15.713-6.505 22.139 22.139 0 0 1-6.506-15.706v-13.09c0-22.802 9.243-43.447 24.187-58.39 14.944-14.944 35.588-24.187 58.39-24.187h16.578c22.802 0 43.447 9.243 58.39 24.187 14.944 14.943 24.187 35.587 24.187 58.39zM301.189 395.062v14.144c0 8.992-3.645 17.136-9.54 23.032s-14.038 9.543-23.035 9.543H152.03c-8.997 0-17.14-3.648-23.035-9.543-5.895-5.896-9.54-14.039-9.54-23.032v-14.144c0-3.909 1.584-7.445 4.144-10.004a14.101 14.101 0 0 1 10.001-4.14h153.444c3.905 0 7.441 1.582 10.001 4.14a14.095 14.095 0 0 1 4.144 10.004z"/><path style="fill:#fadac6" d="M133.704 263.532a10.112 10.112 0 0 0 1.606-7.596 10.113 10.113 0 0 0-4.236-6.506 10.112 10.112 0 0 0-7.596-1.606 10.113 10.113 0 0 0-6.506 4.236c-1.584 2.31-2.869 6.193-3.181 9.894-.312 3.701.35 7.22 2.66 8.804 2.31 1.584 5.832.933 9.171-.692 3.34-1.625 6.498-4.224 8.082-6.534zM57.25 291.222a10.114 10.114 0 0 0-1.62 7.593 10.108 10.108 0 0 0 4.224 6.514 10.114 10.114 0 0 0 7.593 1.62 10.108 10.108 0 0 0 6.514-4.224c1.588-2.307 2.881-6.188 3.199-9.888.319-3.7-.337-7.221-2.644-8.809-2.307-1.588-5.83-.943-9.173.675-3.342 1.619-6.505 4.211-8.093 6.519zM87.448 214.743a10.113 10.113 0 0 0-4.819 6.087 10.115 10.115 0 0 0 .896 7.712 10.113 10.113 0 0 0 6.087 4.819c2.497.71 5.265.467 7.712-.896s5.326-4.268 7.253-7.443c1.927-3.175 2.901-6.621 1.537-9.068-1.364-2.447-4.807-3.431-8.521-3.463s-7.699.888-10.145 2.252zM179.438 228.209a10.107 10.107 0 0 0 5.161 5.8c2.337 1.131 5.105 1.371 7.751.452s4.669-2.824 5.8-5.161c1.131-2.337 1.371-5.105.452-7.751s-3.282-5.985-6.075-8.432-6.019-4.003-8.665-3.084-4.211 4.14-4.886 7.793c-.674 3.653-.457 7.737.462 10.383zM170.136 286.495c1.529 2.347 3.864 3.852 6.404 4.389s5.285.104 7.632-1.425a10.116 10.116 0 0 0 4.389-6.404c.536-2.54.104-5.285-1.425-7.632-1.529-2.347-4.625-5.02-7.925-6.723-3.3-1.703-6.805-2.438-9.152-.909s-3.092 5.032-2.868 8.739 1.416 7.618 2.945 9.965zM257.822 252.253c1.994 1.967 4.597 2.94 7.193 2.922s5.185-1.026 7.152-3.02a10.111 10.111 0 0 0 2.922-7.193 10.113 10.113 0 0 0-3.02-7.152c-1.994-1.967-5.589-3.918-9.176-4.879-3.588-.961-7.169-.931-9.136 1.063-1.967 1.994-1.948 5.575-.939 9.149s3.009 7.143 5.004 9.11zM232.076 293.563a10.111 10.111 0 0 0 5.781 5.182 10.11 10.11 0 0 0 7.752-.424 10.111 10.111 0 0 0 5.182-5.781c.861-2.449.788-5.227-.424-7.752s-3.935-5.577-6.987-7.694-6.432-3.299-8.957-2.088c-2.526 1.212-3.718 4.588-3.977 8.293-.257 3.705.419 7.739 1.63 10.264z"/><path style="fill:#9e490d" d="M301.189 355.913v7.004c0 4.972-2.014 9.472-5.272 12.73s-7.758 5.272-12.73 5.272H56.022a17.944 17.944 0 0 1-12.73-5.272 17.947 17.947 0 0 1-5.272-12.73v-7.004c0-4.972 2.014-9.472 5.272-12.73a17.947 17.947 0 0 1 12.73-5.272h227.166c4.972 0 9.472 2.014 12.73 5.272a17.946 17.946 0 0 1 5.271 12.73z"/><path style="fill:#b5550d" d="M301.189 355.913v7.004c0 4.972-2.014 9.472-5.272 12.73s-7.758 5.272-12.73 5.272h-145.73a17.944 17.944 0 0 1-12.73-5.272 17.947 17.947 0 0 1-5.272-12.73v-7.004c0-4.972 2.014-9.472 5.272-12.73a17.947 17.947 0 0 1 12.73-5.272h145.73c4.972 0 9.472 2.014 12.73 5.272a17.943 17.943 0 0 1 5.272 12.73z"/><path style="fill:#9e490d" d="M255.044 365.558c0 2.367.96 4.51 2.511 6.062a8.546 8.546 0 0 0 6.062 2.511 8.55 8.55 0 0 0 6.062-2.511 8.546 8.546 0 0 0 2.511-6.062c0-2.367-.959-4.51-2.511-6.062a8.546 8.546 0 0 0-6.062-2.511c-2.367 0-4.51.959-6.062 2.511a8.55 8.55 0 0 0-2.511 6.062z"/><path style="fill:#bd2133" d="M295.043 328.25a9.63 9.63 0 0 1-2.829 6.832 9.601 9.601 0 0 1-6.824 2.829H53.819a9.619 9.619 0 0 1-6.826-2.828 9.633 9.633 0 0 1-2.827-6.833 9.618 9.618 0 0 1 2.829-6.824 9.601 9.601 0 0 1 6.824-2.829h231.572c2.666 0 5.079 1.08 6.826 2.827s2.826 4.16 2.826 6.826z"/><path style="fill:#eb2433" d="M295.043 328.25a9.63 9.63 0 0 1-2.829 6.832 9.601 9.601 0 0 1-6.824 2.829H129.118a9.628 9.628 0 0 1-6.833-2.828 9.63 9.63 0 0 1-2.828-6.833 9.618 9.618 0 0 1 2.829-6.824 9.63 9.63 0 0 1 6.832-2.829H285.39c2.666 0 5.079 1.08 6.826 2.827s2.827 4.16 2.827 6.826z"/><path style="fill:#e0b645" d="m223.573 318.072-38.204 38.204-38.204 38.204c-1.734 1.734-4.006 2.6-6.278 2.6s-4.544-.867-6.278-2.6l-38.204-38.204-38.204-38.204h165.372z"/><path style="fill:#fdd347" d="m282.722 318.072-38.204 38.204-38.204 38.204a8.85 8.85 0 0 1-6.278 2.6 8.854 8.854 0 0 1-6.278-2.6l-38.204-38.204-38.204-38.204h165.372z"/><path style="fill:#e0b645" d="M223.573 335.913c0 3.331 1.35 6.347 3.533 8.53s5.199 3.533 8.53 3.533c3.331 0 6.347-1.35 8.53-3.533s3.533-5.199 3.533-8.53c0-3.331-1.35-6.347-3.533-8.53a12.026 12.026 0 0 0-8.53-3.533c-3.331 0-6.347 1.35-8.53 3.533a12.026 12.026 0 0 0-3.533 8.53zM195.186 369.049c0 3.331 1.35 6.347 3.533 8.53s5.199 3.533 8.53 3.533c3.331 0 6.347-1.35 8.53-3.533s3.533-5.199 3.533-8.53-1.35-6.347-3.533-8.53-5.199-3.533-8.53-3.533c-3.331 0-6.347 1.35-8.53 3.533s-3.533 5.199-3.533 8.53zM194.005 337.911a6.01 6.01 0 0 0 1.767 4.265 6.011 6.011 0 0 0 4.265 1.767 6.01 6.01 0 0 0 4.265-1.767 6.011 6.011 0 0 0 1.767-4.265 6.01 6.01 0 0 0-1.767-4.265 6.011 6.011 0 0 0-4.265-1.767 6.01 6.01 0 0 0-4.265 1.767 6.01 6.01 0 0 0-1.767 4.265zM167.152 351.629c0 3.086 1.251 5.88 3.274 7.903 2.023 2.023 4.817 3.274 7.903 3.274s5.88-1.251 7.903-3.274c2.023-2.023 3.274-4.817 3.274-7.903s-1.251-5.88-3.274-7.903c-2.023-2.023-4.817-3.274-7.903-3.274s-5.88 1.251-7.903 3.274a11.141 11.141 0 0 0-3.274 7.903z"/><path style="fill:#0fa46e" d="M180.894 318.075c0 3.883-.787 7.584-2.211 10.951a28.133 28.133 0 0 1-6.036 8.945c-2.546 2.55-5.578 4.612-8.946 6.036s-7.071 2.211-10.959 2.211a28.002 28.002 0 0 1-13.854-3.643 28.302 28.302 0 0 1-10.029-9.61 19.843 19.843 0 0 1-5.975 3.626 19.426 19.426 0 0 1-3.449.982c-1.19.223-2.418.339-3.674.339a19.775 19.775 0 0 1-13.87-5.657 19.771 19.771 0 0 1-13.87 5.657h-9.978a19.787 19.787 0 0 1-14.031-5.81 19.769 19.769 0 0 1-5.814-14.026h122.696z"/><path style="fill:#088e5d" d="M179.651 318.075c-.681 2.216-1.631 4.316-2.811 6.262s-2.59 3.738-4.193 5.336a28.127 28.127 0 0 1-8.946 6.036 28.074 28.074 0 0 1-10.959 2.211 28.002 28.002 0 0 1-13.854-3.643 28.302 28.302 0 0 1-10.029-9.61 19.843 19.843 0 0 1-5.975 3.626 19.426 19.426 0 0 1-3.449.982c-1.19.223-2.418.339-3.674.339a19.775 19.775 0 0 1-13.87-5.657 19.768 19.768 0 0 1-13.87 5.657h-9.978a19.755 19.755 0 0 1-10.833-3.217 19.902 19.902 0 0 1-7.194-8.322H179.651z"/><g><path style="fill:#1f3d5c" d="m457.635 17.995-18.76 103.634-18.76 103.634-10.288-1.862-10.288-1.862 18.76-103.634 18.76-103.634c.298-1.648 1.145-3.037 2.271-3.948 1.127-.912 2.534-1.347 3.956-1.09l5.141.931 5.141.931c1.421.257 2.587 1.158 3.323 2.407.736 1.248 1.042 2.844.744 4.493z"/><path style="fill:#245073" d="m457.635 17.995-18.76 103.634-18.76 103.634-5.146-.932-5.146-.932 18.76-103.634 18.76-103.634c.298-1.648 1.145-3.037 2.271-3.948 1.127-.912 2.534-1.347 3.956-1.09 1.421.257 2.587 1.158 3.323 2.407.734 1.25 1.04 2.846.742 4.495z"/><path style="fill:#b83848" d="m468.7 192.704-.365 4.54-.365 4.54-.015.21-.015.21-.97 12.045-.97 12.045-5.065 63.125-5.065 63.125-2.175 27.07-2.175 27.07-.64 7.985-.64 7.985-.34 4.215-.34 4.215c-.245 3.02-1.628 5.695-3.708 7.615s-4.858 3.085-7.893 3.085H328.44c-3.035 0-5.812-1.165-7.892-3.085s-3.462-4.595-3.707-7.615l-.98-12.2-.98-12.2-2.175-27.07-2.175-27.07-3.19-39.765-3.19-39.765-1.475-18.375-1.475-18.375-1.315-16.375-1.315-16.375-.07-.865-.07-.865-.365-4.54-.365-4.54H468.7z"/><path style="fill:#d1d1d1" d="m451.52 406.684-.64 7.985-.64 7.985-.34 4.215-.34 4.215c-.245 3.02-1.628 5.695-3.708 7.615s-4.858 3.085-7.893 3.085H328.44c-3.035 0-5.812-1.165-7.892-3.085s-3.462-4.595-3.707-7.615l-.98-12.2-.98-12.2H451.52z"/><path style="fill:#fb4755" d="m468.7 192.704-.365 4.54-.365 4.54-.015.21-.015.21-.97 12.045-.97 12.045-5.065 63.125-5.065 63.125-2.175 27.07-2.175 27.07-.64 7.985-.64 7.985-.34 4.215-.34 4.215c-.245 3.02-1.628 5.695-3.708 7.615s-4.858 3.085-7.893 3.085H371.44c-3.035 0-5.812-1.165-7.892-3.085s-3.462-4.595-3.707-7.615l-.98-12.2-.98-12.2-2.175-27.07-2.175-27.07-4.175-52.01-4.175-52.01-.89-11.115-.89-11.115-.97-12.045-.97-12.045-.015-.21-.015-.21-.05-.595-.05-.595-.315-3.945-.315-3.945H468.7z"/><path style="fill:#fff" d="m451.52 406.684-.64 7.985-.64 7.985-.34 4.215-.34 4.215c-.245 3.02-1.628 5.695-3.708 7.615s-4.858 3.085-7.893 3.085H371.44c-3.035 0-5.812-1.165-7.892-3.085s-3.462-4.595-3.707-7.615l-.98-12.2-.98-12.2H451.52z"/><path style="fill:#cacaca" d="M483.34 189.191c0 1.735-.353 3.39-.989 4.896a12.663 12.663 0 0 1-2.691 4.004 12.574 12.574 0 0 1-8.91 3.69H295.64c-3.48 0-6.628-1.41-8.905-3.689a12.555 12.555 0 0 1-3.685-8.901 12.556 12.556 0 0 1 3.69-8.91c1.135-1.135 2.49-2.055 3.996-2.691s3.164-.989 4.904-.989h175.11c3.48 0 6.628 1.408 8.905 3.685a12.553 12.553 0 0 1 3.685 8.905z"/><path style="fill:#fff" d="M483.34 189.191c0 1.735-.353 3.39-.989 4.896a12.663 12.663 0 0 1-2.691 4.004 12.574 12.574 0 0 1-8.91 3.69H353.29c-3.475 0-6.623-1.41-8.901-3.689a12.55 12.55 0 0 1-3.689-8.901 12.574 12.574 0 0 1 3.69-8.91c1.14-1.135 2.497-2.055 4.004-2.691s3.161-.989 4.896-.989h117.46c3.48 0 6.628 1.408 8.905 3.685a12.553 12.553 0 0 1 3.685 8.905z"/><path style="fill:#b83848" d="m467.94 202.201-.97 12.045-.97 12.045H320.02v-24.09h73.96z"/></g></g></svg>